{"title":"Harry.Potter.Hexalogy.(1-4 PIZmp4)(5-6 mkv).DVDRip.cj4thee","uid":6057028,"size":3319580269,"categoryP":"video","categoryS":"movies","magnet":"?xt=urn:btih:d8b4d09eaf1e28fb5873572739559f575086a93c&amp;dn=Harry.Potter.Hexalogy.%281-4+PIZmp4%29%285-6+mkv%29.DVDRip.cj4thee&amp;tr=udp%3A%2F%2Ftracker.openbittorrent.com%3A80&amp;tr=udp%3A%2F%2Fopen.demonii.com%3A1337&amp;tr=udp%3A%2F%2Ftracker.coppersurfer.tk%3A6969&amp;tr=udp%3A%2F%2Fexodus.desync.com%3A6969","seeders":0,"leechers":0,"uploader":"cj4thee","files":-1,"time":1292950164,"description":"The Complete Harry Potter Collection all 6 Movies.\n\nThe First 4 movies are mp4 all DVDRips and will run on (PIZ) PSP Ipod and Zune.\n\nThe Fifth and Sixth movies are in mkv, DVDRip and BRRip respectively\n\n\n\n01 Harry Potter And The Sorcerer's Stone [2001]:\n\nIMDB                             : http://www.imdb.com/title/tt0241527/\nGeneral\nComplete name                    : 01 Harry Potter And The Sorcerer's Stone [2001] DvdRip [Eng].mp4\nFormat                           : MPEG-4\nFormat profile                   : Base Media\nCodec ID                         : isom\nFile size                        : 486 MiB\nDuration                         : 2h 32mn\nOverall bit rate                 : 446 Kbps\n\nVideo\nID                               : 1\nFormat                           : AVC\nFormat/Info                      : Advanced Video Codec\nFormat profile                   : &lt;a class=&quot;__cf_email__&quot; href=&quot;/cdn-cgi/l/email-protection&quot; data-cfemail=&quot;90d2f1e3f5fcf9fef5d0dca2bea0&quot;&gt;[email&amp;#160;protected]&lt;/a&gt;&lt;script cf-hash='f9e31' type=&quot;text/javascript&quot;&gt;\n/* &lt;![CDATA[ */!function(){try{var t=&quot;currentScript&quot;in document?document.currentScript:function(){for(var t=document.getElementsByTagName(&quot;script&quot;),e=t.length;e--;)if(t[e].getAttribute(&quot;cf-hash&quot;))return t[e]}();if(t&amp;&amp;t.previousSibling){var e,r,n,i,c=t.previousSibling,a=c.getAttribute(&quot;data-cfemail&quot;);if(a){for(e=&quot;&quot;,r=parseInt(a.substr(0,2),16),n=2;a.length-n;n+=2)i=parseInt(a.substr(n,2),16)^r,e+=String.fromCharCode(i);e=document.createTextNode(e),c.parentNode.replaceChild(e,c)}}}catch(u){}}();/* ]]&gt; */&lt;/script&gt;\nFormat settings, CABAC           : No\nFormat settings, ReFrames        : 2 frames\nCodec ID                         : avc1\nCodec ID/Info                    : Advanced Video Coding\nDuration                         : 2h 32mn\nBit rate mode                    : Variable\nBit rate                         : 347 Kbps\nMaximum bit rate                 : 2 649 Kbps\nWidth                            : 480 pixels\nHeight                           : 208 pixels\nDisplay aspect ratio             : 2.35:1\nFrame rate mode                  : Constant\nFrame rate                       : 23.976 fps\nColor space                      : YUV\nChroma subsampling               : 4:2:0\nBit depth                        : 8 bits\nScan type                        : Progressive\nBits/(Pixel*Frame)               : 0.145\nStream size                      : 378 MiB (78%)\n\nAudio\nID                               : 2\nFormat                           : AAC\nFormat/Info                      : Advanced Audio Codec\nFormat version                   : Version 4\nFormat profile                   : LC\nFormat settings, SBR             : No\nCodec ID                         : 40\nDuration                         : 2h 32mn\nBit rate mode                    : Variable\nBit rate                         : 96.0 Kbps\nMaximum bit rate                 : 122 Kbps\nChannel(s)                       : 2 channels\nChannel positions                : Front: L R\nSampling rate                    : 44.1 KHz\nStream size                      : 106 MiB (22%)\n\n\n\n02 Harry Potter And The Chamber of Secrets [2002] DvdRip [Eng]:\n\nIMDB                             : http://www.imdb.com/title/tt0295297/\nGeneral\nComplete name                    : 02 Harry Potter And The Chamber of Secrets [2002] DvdRip [Eng].mp4\nFormat                           : MPEG-4\nFormat profile                   : Base Media\nCodec ID                         : isom\nFile size                        : 479 MiB\nDuration                         : 2h 40mn\nOverall bit rate                 : 416 Kbps\n\nVideo\nID                               : 1\nFormat                           : AVC\nFormat/Info                      : Advanced Video Codec\nFormat profile                   : &lt;a class=&quot;__cf_email__&quot; href=&quot;/cdn-cgi/l/email-protection&quot; data-cfemail=&quot;4a082b392f2623242f0a0678647a&quot;&gt;[email&amp;#160;protected]&lt;/a&gt;&lt;script cf-hash='f9e31' type=&quot;text/javascript&quot;&gt;\n/* &lt;![CDATA[ */!function(){try{var t=&quot;currentScript&quot;in document?document.currentScript:function(){for(var t=document.getElementsByTagName(&quot;script&quot;),e=t.length;e--;)if(t[e].getAttribute(&quot;cf-hash&quot;))return t[e]}();if(t&amp;&amp;t.previousSibling){var e,r,n,i,c=t.previousSibling,a=c.getAttribute(&quot;data-cfemail&quot;);if(a){for(e=&quot;&quot;,r=parseInt(a.substr(0,2),16),n=2;a.length-n;n+=2)i=parseInt(a.substr(n,2),16)^r,e+=String.fromCharCode(i);e=document.createTextNode(e),c.parentNode.replaceChild(e,c)}}}catch(u){}}();/* ]]&gt; */&lt;/script&gt;\nFormat settings, CABAC           : No\nFormat settings, ReFrames        : 2 frames\nCodec ID                         : avc1\nCodec ID/Info                    : Advanced Video Coding\nDuration                         : 2h 40mn\nBit rate mode                    : Variable\nBit rate                         : 317 Kbps\nMaximum bit rate                 : 2 879 Kbps\nWidth                            : 480 pixels\nHeight                           : 200 pixels\nDisplay aspect ratio             : 2.40:1\nFrame rate mode                  : Constant\nFrame rate                       : 23.976 fps\nColor space                      : YUV\nChroma subsampling               : 4:2:0\nBit depth                        : 8 bits\nScan type                        : Progressive\nBits/(Pixel*Frame)               : 0.138\nStream size                      : 365 MiB (76%)\nWriting library                  : x264 core 59\n\nAudio\nID                               : 2\nFormat                           : AAC\nFormat/Info                      : Advanced Audio Codec\nFormat version                   : Version 4\nFormat profile                   : LC\nFormat settings, SBR             : No\nCodec ID                         : 40\nDuration                         : 2h 40mn\nBit rate mode                    : Variable\nBit rate                         : 96.0 Kbps\nMaximum bit rate                 : 123 Kbps\nChannel(s)                       : 2 channels\nChannel positions                : Front: L R\nSampling rate                    : 32.0 KHz\nStream size                      : 112 MiB (23%)\n\n\n\n03 Harry Potter and the Prisoner of Azkaban [2004]\n\nIMDB                             : http://www.imdb.com/title/tt0304141/\nGeneral\nComplete name                    : 03 Harry Potter and the Prisoner of Azkaban [2004].mp4\nFormat                           : MPEG-4\nFormat profile                   : Base Media\nCodec ID                         : isom\nFile size                        : 498 MiB\nDuration                         : 2h 22mn\nOverall bit rate                 : 489 Kbps\n\nVideo\nID                               : 1\nFormat                           : AVC\nFormat/Info                      : Advanced Video Codec\nFormat profile                   : &lt;a class=&quot;__cf_email__&quot; href=&quot;/cdn-cgi/l/email-protection&quot; data-cfemail=&quot;c082a1b3a5aca9aea5808cf2eef0&quot;&gt;[email&amp;#160;protected]&lt;/a&gt;&lt;script cf-hash='f9e31' type=&quot;text/javascript&quot;&gt;\n/* &lt;![CDATA[ */!function(){try{var t=&quot;currentScript&quot;in document?document.currentScript:function(){for(var t=document.getElementsByTagName(&quot;script&quot;),e=t.length;e--;)if(t[e].getAttribute(&quot;cf-hash&quot;))return t[e]}();if(t&amp;&amp;t.previousSibling){var e,r,n,i,c=t.previousSibling,a=c.getAttribute(&quot;data-cfemail&quot;);if(a){for(e=&quot;&quot;,r=parseInt(a.substr(0,2),16),n=2;a.length-n;n+=2)i=parseInt(a.substr(n,2),16)^r,e+=String.fromCharCode(i);e=document.createTextNode(e),c.parentNode.replaceChild(e,c)}}}catch(u){}}();/* ]]&gt; */&lt;/script&gt;\nFormat settings, CABAC           : No\nFormat settings, ReFrames        : 2 frames\nCodec ID                         : avc1\nCodec ID/Info                    : Advanced Video Coding\nDuration                         : 2h 22mn\nBit rate mode                    : Variable\nBit rate                         : 389 Kbps\nMaximum bit rate                 : 2 181 Kbps\nWidth                            : 480 pixels\nHeight                           : 208 pixels\nDisplay aspect ratio             : 2.35:1\nFrame rate mode                  : Constant\nFrame rate                       : 23.976 fps\nColor space                      : YUV\nChroma subsampling               : 4:2:0\nBit depth                        : 8 bits\nScan type                        : Progressive\nBits/(Pixel*Frame)               : 0.163\nStream size                      : 397 MiB (80%)\nWriting library                  : x264 core 59\n\nAudio\nID                               : 2\nFormat                           : AAC\nFormat/Info                      : Advanced Audio Codec\nFormat version                   : Version 4\nFormat profile                   : LC\nFormat settings, SBR             : No\nCodec ID                         : 40\nDuration                         : 2h 22mn\nBit rate mode                    : Variable\nBit rate                         : 96.0 Kbps\nMaximum bit rate                 : 119 Kbps\nChannel(s)                       : 2 channels\nChannel positions                : Front: L R\nSampling rate                    : 48.0 KHz\nStream size                      : 98.6 MiB (20%)\n\n\n\n04 Harry Potter And The Goblet Of Fire [2005]\n\nIMDB                             : http://www.imdb.com/title/tt0330373/\nGeneral\nComplete name                    : 04 Harry Potter And The Goblet Of Fire [2005].mp4\nFormat                           : MPEG-4\nFormat profile                   : Base Media\nCodec ID                         : isom\nFile size                        : 517 MiB\nDuration                         : 2h 30mn\nOverall bit rate                 : 480 Kbps\n\nVideo\nID                               : 1\nFormat                           : AVC\nFormat/Info                      : Advanced Video Codec\nFormat profile                   : &lt;a class=&quot;__cf_email__&quot; href=&quot;/cdn-cgi/l/email-protection&quot; data-cfemail=&quot;12507361777e7b7c77525e203c22&quot;&gt;[email&amp;#160;protected]&lt;/a&gt;&lt;script cf-hash='f9e31' type=&quot;text/javascript&quot;&gt;\n/* &lt;![CDATA[ */!function(){try{var t=&quot;currentScript&quot;in document?document.currentScript:function(){for(var t=document.getElementsByTagName(&quot;script&quot;),e=t.length;e--;)if(t[e].getAttribute(&quot;cf-hash&quot;))return t[e]}();if(t&amp;&amp;t.previousSibling){var e,r,n,i,c=t.previousSibling,a=c.getAttribute(&quot;data-cfemail&quot;);if(a){for(e=&quot;&quot;,r=parseInt(a.substr(0,2),16),n=2;a.length-n;n+=2)i=parseInt(a.substr(n,2),16)^r,e+=String.fromCharCode(i);e=document.createTextNode(e),c.parentNode.replaceChild(e,c)}}}catch(u){}}();/* ]]&gt; */&lt;/script&gt;\nFormat settings, CABAC           : No\nFormat settings, ReFrames        : 2 frames\nCodec ID                         : avc1\nCodec ID/Info                    : Advanced Video Coding\nDuration                         : 2h 30mn\nBit rate mode                    : Variable\nBit rate                         : 380 Kbps\nMaximum bit rate                 : 3 250 Kbps\nWidth                            : 480 pixels\nHeight                           : 200 pixels\nDisplay aspect ratio             : 2.40:1\nFrame rate mode                  : Constant\nFrame rate                       : 25.000 fps\nColor space                      : YUV\nChroma subsampling               : 4:2:0\nBit depth                        : 8 bits\nScan type                        : Progressive\nBits/(Pixel*Frame)               : 0.158\nStream size                      : 409 MiB (79%)\nWriting library                  : x264 core 59\n\nAudio\nID                               : 2\nFormat                           : AAC\nFormat/Info                      : Advanced Audio Codec\nFormat version                   : Version 4\nFormat profile                   : LC\nFormat settings, SBR             : No\nCodec ID                         : 40\nDuration                         : 2h 30mn\nBit rate mode                    : Variable\nBit rate                         : 96.0 Kbps\nMaximum bit rate                 : 115 Kbps\nChannel(s)                       : 2 channels\nChannel positions                : Front: L R\nSampling rate                    : 48.0 KHz\nStream size                      : 104 MiB (20%)\n\n\n\n05 Harry Potter And The Order Of The Phoenix[2007]\n\nIMDB                             : http://www.imdb.com/title/tt0373889/\nGeneral\nComplete name                    : 05 Harry Potter And The Order Of The Phoenix[2007].mkv\nFormat                           : Matroska\nFile size                        : 534 MiB\nDuration                         : 2h 12mn\nOverall bit rate                 : 563 Kbps\nMovie name                       : 05 Harry Potter And The Order Of The Phoenix[2007]\nEncoded date                     : UTC 2010-12-10 22:46:04\nWriting application              : mkvmerge v4.3.0 ('Escape from the Island') built on Sep  5 2010 10:30:51\nWriting library                  : libebml v1.0.0 + libmatroska v1.0.0\n\nVideo\nID                               : 1\nFormat                           : AVC\nFormat/Info                      : Advanced Video Codec\nFormat profile                   : &lt;a class=&quot;__cf_email__&quot; href=&quot;/cdn-cgi/l/email-protection&quot; data-cfemail=&quot;84ccede3ecc4c8b0aab4&quot;&gt;[email&amp;#160;protected]&lt;/a&gt;&lt;script cf-hash='f9e31' type=&quot;text/javascript&quot;&gt;\n/* &lt;![CDATA[ */!function(){try{var t=&quot;currentScript&quot;in document?document.currentScript:function(){for(var t=document.getElementsByTagName(&quot;script&quot;),e=t.length;e--;)if(t[e].getAttribute(&quot;cf-hash&quot;))return t[e]}();if(t&amp;&amp;t.previousSibling){var e,r,n,i,c=t.previousSibling,a=c.getAttribute(&quot;data-cfemail&quot;);if(a){for(e=&quot;&quot;,r=parseInt(a.substr(0,2),16),n=2;a.length-n;n+=2)i=parseInt(a.substr(n,2),16)^r,e+=String.fromCharCode(i);e=document.createTextNode(e),c.parentNode.replaceChild(e,c)}}}catch(u){}}();/* ]]&gt; */&lt;/script&gt;\nFormat settings, CABAC           : Yes\nFormat settings, ReFrames        : 3 frames\nMuxing mode                      : Container profile=&lt;a class=&quot;__cf_email__&quot; href=&quot;/cdn-cgi/l/email-protection&quot; data-cfemail=&quot;64310a0f0a0b130a24504a54&quot;&gt;[email&amp;#160;protected]&lt;/a&gt;&lt;script cf-hash='f9e31' type=&quot;text/javascript&quot;&gt;\n/* &lt;![CDATA[ */!function(){try{var t=&quot;currentScript&quot;in document?document.currentScript:function(){for(var t=document.getElementsByTagName(&quot;script&quot;),e=t.length;e--;)if(t[e].getAttribute(&quot;cf-hash&quot;))return t[e]}();if(t&amp;&amp;t.previousSibling){var e,r,n,i,c=t.previousSibling,a=c.getAttribute(&quot;data-cfemail&quot;);if(a){for(e=&quot;&quot;,r=parseInt(a.substr(0,2),16),n=2;a.length-n;n+=2)i=parseInt(a.substr(n,2),16)^r,e+=String.fromCharCode(i);e=document.createTextNode(e),c.parentNode.replaceChild(e,c)}}}catch(u){}}();/* ]]&gt; */&lt;/script&gt;\nCodec ID                         : V_MPEG4/ISO/AVC\nDuration                         : 2h 12mn\nBit rate                         : 450 Kbps\nWidth                            : 672 pixels\nHeight                           : 272 pixels\nDisplay aspect ratio             : 2.471\nFrame rate                       : 25.000 fps\nColor space                      : YUV\nChroma subsampling               : 4:2:0\nBit depth                        : 8 bits\nScan type                        : Progressive\nBits/(Pixel*Frame)               : 0.098\nStream size                      : 417 MiB (78%)\nWriting library                  : x264 core 105 r1732 2b04482\n\nAudio\nID                               : 2\nFormat                           : MPEG Audio\nFormat version                   : Version 1\nFormat profile                   : Layer 3\nCodec ID                         : A_MPEG/L3\nCodec ID/Hint                    : MP3\nDuration                         : 2h 12mn\nBit rate mode                    : Constant\nBit rate                         : 112 Kbps\nChannel(s)                       : 2 channels\nSampling rate                    : 48.0 KHz\nStream size                      : 106 MiB (20%)\n\n\n\n06 Harry Potter and the Half Blood Prince [2009]\n\n\nIMDB                             : http://www.imdb.com/title/tt0417741/\nGeneral\nComplete name                    : 06 Harry Potter and the Half Blood Prince [2009].mkv\nFormat                           : Matroska\nFile size                        : 651 MiB\nDuration                         : 2h 33mn\nOverall bit rate                 : 593 Kbps\nEncoded date                     : UTC 2009-11-02 23:30:42\nWriting application              : mkvmerge v2.5.2 ('Stranger in your Soul') built on Feb 28 2009 18:58:17\nWriting library                  : libebml v0.7.7 + libmatroska v0.8.1\n\nVideo\nID                               : 1\nFormat                           : AVC\nFormat/Info                      : Advanced Video Codec\nFormat profile                   : &lt;a class=&quot;__cf_email__&quot; href=&quot;/cdn-cgi/l/email-protection&quot; data-cfemail=&quot;f1b9989699b1bdc2dfc0&quot;&gt;[email&amp;#160;protected]&lt;/a&gt;&lt;script cf-hash='f9e31' type=&quot;text/javascript&quot;&gt;\n/* &lt;![CDATA[ */!function(){try{var t=&quot;currentScript&quot;in document?document.currentScript:function(){for(var t=document.getElementsByTagName(&quot;script&quot;),e=t.length;e--;)if(t[e].getAttribute(&quot;cf-hash&quot;))return t[e]}();if(t&amp;&amp;t.previousSibling){var e,r,n,i,c=t.previousSibling,a=c.getAttribute(&quot;data-cfemail&quot;);if(a){for(e=&quot;&quot;,r=parseInt(a.substr(0,2),16),n=2;a.length-n;n+=2)i=parseInt(a.substr(n,2),16)^r,e+=String.fromCharCode(i);e=document.createTextNode(e),c.parentNode.replaceChild(e,c)}}}catch(u){}}();/* ]]&gt; */&lt;/script&gt;\nFormat settings, CABAC           : Yes\nFormat settings, ReFrames        : 5 frames\nMuxing mode                      : Container profile=&lt;a class=&quot;__cf_email__&quot; href=&quot;/cdn-cgi/l/email-protection&quot; data-cfemail=&quot;62370c090c0d150c22514c53&quot;&gt;[email&amp;#160;protected]&lt;/a&gt;&lt;script cf-hash='f9e31' type=&quot;text/javascript&quot;&gt;\n/* &lt;![CDATA[ */!function(){try{var t=&quot;currentScript&quot;in document?document.currentScript:function(){for(var t=document.getElementsByTagName(&quot;script&quot;),e=t.length;e--;)if(t[e].getAttribute(&quot;cf-hash&quot;))return t[e]}();if(t&amp;&amp;t.previousSibling){var e,r,n,i,c=t.previousSibling,a=c.getAttribute(&quot;data-cfemail&quot;);if(a){for(e=&quot;&quot;,r=parseInt(a.substr(0,2),16),n=2;a.length-n;n+=2)i=parseInt(a.substr(n,2),16)^r,e+=String.fromCharCode(i);e=document.createTextNode(e),c.parentNode.replaceChild(e,c)}}}catch(u){}}();/* ]]&gt; */&lt;/script&gt;\nCodec ID                         : V_MPEG4/ISO/AVC\nDuration                         : 2h 33mn\nNominal bit rate                 : 555 Kbps\nWidth                            : 1 280 pixels\nHeight                           : 534 pixels\nDisplay aspect ratio             : 2.35:1\nOriginal display aspect ratio    : 2.35:1\nFrame rate                       : 23.976 fps\nColor space                      : YUV\nChroma subsampling               : 4:2:0\nBit depth                        : 8 bits\nScan type                        : Progressive\nBits/(Pixel*Frame)               : 0.034\nWriting library                  : x264 core 68 r1183M f21daff\n\nAudio\nID                               : 2\nFormat                           : AAC\nFormat/Info                      : Advanced Audio Codec\nFormat version                   : Version 4\nFormat profile                   : LC\nFormat settings, SBR             : Yes\nFormat settings, PS              : No\nCodec ID                         : A_AAC\nDuration                         : 2h 33mn\nChannel(s)                       : 2 channels\nChannel positions                : Front: L R\nSampling rate                    : 48.0 KHz\n\nDont ask me for Subs, I dont do Subs...\n\n\nDetailed Screen Caps and File info are included in the Torrent:\nSome Screens:\n &lt;a href=&quot;\nhttp://bayimg.com/BabaPAAdJ&quot; rel=&quot;nofollow&quot; target=&quot;_NEW&quot;&gt;\nhttp://bayimg.com/BabaPAAdJ&lt;/a&gt;\n &lt;a href=&quot;\nhttp://bayimg.com/baBaoaAdj&quot; rel=&quot;nofollow&quot; target=&quot;_NEW&quot;&gt;\nhttp://bayimg.com/baBaoaAdj&lt;/a&gt;\n &lt;a href=&quot;\nhttp://bayimg.com/baBAnaaDJ&quot; rel=&quot;nofollow&quot; target=&quot;_NEW&quot;&gt;\nhttp://bayimg.com/baBAnaaDJ&lt;/a&gt;\n &lt;a href=&quot;\nhttp://bayimg.com/bAbaMAadj&quot; rel=&quot;nofollow&quot; target=&quot;_NEW&quot;&gt;\nhttp://bayimg.com/bAbaMAadj&lt;/a&gt;\n &lt;a href=&quot;\nhttp://bayimg.com/bABALAaDj&quot; rel=&quot;nofollow&quot; target=&quot;_NEW&quot;&gt;\nhttp://bayimg.com/bABALAaDj&lt;/a&gt;\n &lt;a href=&quot;\nhttp://bayimg.com/BABAjAaDj&quot; rel=&quot;nofollow&quot; target=&quot;_NEW&quot;&gt;\nhttp://bayimg.com/BABAjAaDj&lt;/a&gt;\n &lt;a href=&quot;\nhttp://bayimg.com/PABPmaAdi&quot; rel=&quot;nofollow&quot; target=&quot;_NEW&quot;&gt;\nhttp://bayimg.com/PABPmaAdi&lt;/a&gt;\n &lt;a href=&quot;\nhttp://bayimg.com/PAbpkAaDI&quot; rel=&quot;nofollow&quot; target=&quot;_NEW&quot;&gt;\nhttp://bayimg.com/PAbpkAaDI&lt;/a&gt;\n\n\nGo Ahead... Make My Day!!!\n SEED SEED SEED SEED\n SEED SEED SEED SEED\n SEED SEED SEED SEED\n SEED SEED SEED SEED\n\nP.S. Be Patient, Initial seeding may take time.","torrent":{"xt":"urn:btih:d8b4d09eaf1e28fb5873572739559f575086a93c","amp;dn":"Harry.Potter.Hexalogy.%281-4+PIZmp4%29%285-6+mkv%29.DVDRip.cj4thee","amp;tr":["udp%3A%2F%2Ftracker.openbittorrent.com%3A80","udp%3A%2F%2Fopen.demonii.com%3A1337","udp%3A%2F%2Ftracker.coppersurfer.tk%3A6969","udp%3A%2F%2Fexodus.desync.com%3A6969"],"infoHash":"d8b4d09eaf1e28fb5873572739559f575086a93c","infoHashBuffer":{"type":"Buffer","data":[216,180,208,158,175,30,40,251,88,115,87,39,57,85,159,87,80,134,169,60]},"announce":[],"urlList":[]}}